<svg xmlns="http://www.w3.org/2000/svg" viewBox="0 0 960 620" role="img" aria-label="Exemplo de loja virtual">
  <defs>
    <linearGradient id="bg" x1="0" x2="1" y1="0" y2="1"><stop stop-color="#07100d"/><stop offset="1" stop-color="#001b18"/></linearGradient>
    <linearGradient id="a" x1="0" x2="1"><stop stop-color="#00ff88"/><stop offset="1" stop-color="#00c8ff"/></linearGradient>
  </defs>
  <rect width="960" height="620" rx="34" fill="url(#bg)"/>
  <rect x="62" y="52" width="836" height="516" rx="28" fill="#0b0f0d" stroke="#1d4030"/>
  <rect x="100" y="92" width="760" height="66" rx="18" fill="#111713"/>
  <text x="130" y="134" fill="#f5fff9" font-family="Arial, sans-serif" font-size="25" font-weight="900">Loja Virtual Express</text>
  <rect x="690" y="110" width="126" height="32" rx="16" fill="url(#a)"/>
  <text x="719" y="132" fill="#04130b" font-family="Arial, sans-serif" font-size="15" font-weight="900">Carrinho</text>
  <text x="108" y="232" fill="#f5fff9" font-family="Arial, sans-serif" font-size="42" font-weight="900">Produtos, pedidos e pagamento</text>
  <text x="110" y="270" fill="#aebdb5" font-family="Arial, sans-serif" font-size="22">Uma vitrine organizada para vender pelo celular.</text>
  <g transform="translate(108 330)">
    <g fill="#121914" stroke="#244133">
      <rect width="190" height="156" rx="18"/>
      <rect x="218" width="190" height="156" rx="18"/>
      <rect x="436" width="190" height="156" rx="18"/>
    </g>
    <rect x="28" y="26" width="134" height="62" rx="14" fill="#1f6f51"/>
    <rect x="246" y="26" width="134" height="62" rx="14" fill="#1a5370"/>
    <rect x="464" y="26" width="134" height="62" rx="14" fill="#49501a"/>
    <text x="28" y="120" fill="#f5fff9" font-family="Arial, sans-serif" font-size="19" font-weight="800">Produto destaque</text>
    <text x="246" y="120" fill="#f5fff9" font-family="Arial, sans-serif" font-size="19" font-weight="800">Pedido facil</text>
    <text x="464" y="120" fill="#f5fff9" font-family="Arial, sans-serif" font-size="19" font-weight="800">Checkout</text>
  </g>
</svg>
