<svg xmlns="http://www.w3.org/2000/svg" viewBox="0 0 960 620" role="img" aria-label="Exemplo de site para pizzaria">
  <defs>
    <linearGradient id="bg" x1="0" x2="1" y1="0" y2="1">
      <stop offset="0" stop-color="#07130d"/>
      <stop offset="1" stop-color="#191200"/>
    </linearGradient>
    <linearGradient id="accent" x1="0" x2="1">
      <stop offset="0" stop-color="#00ff88"/>
      <stop offset="1" stop-color="#b6ff00"/>
    </linearGradient>
  </defs>
  <rect width="960" height="620" rx="34" fill="url(#bg)"/>
  <rect x="54" y="54" width="852" height="512" rx="28" fill="#0b0f0d" stroke="#1f3d2b"/>
  <rect x="54" y="54" width="852" height="74" rx="28" fill="#101512"/>
  <circle cx="104" cy="91" r="17" fill="url(#accent)"/>
  <text x="132" y="99" fill="#f6fff9" font-family="Arial, sans-serif" font-size="24" font-weight="800">Pizzaria do Bairro</text>
  <text x="648" y="96" fill="#8aa694" font-family="Arial, sans-serif" font-size="16">Cardapio  Ofertas  WhatsApp</text>
  <text x="92" y="206" fill="#f6fff9" font-family="Arial, sans-serif" font-size="52" font-weight="900">Pizza quente no seu bairro</text>
  <text x="94" y="250" fill="#b8c7be" font-family="Arial, sans-serif" font-size="24">Cardapio simples, combos e pedido direto no WhatsApp.</text>
  <rect x="94" y="300" width="220" height="58" rx="15" fill="url(#accent)"/>
  <text x="126" y="337" fill="#06110b" font-family="Arial, sans-serif" font-size="20" font-weight="900">Pedir no WhatsApp</text>
  <g transform="translate(560 190)">
    <circle cx="135" cy="135" r="128" fill="#271407"/>
    <circle cx="135" cy="135" r="104" fill="#d9872a"/>
    <circle cx="91" cy="94" r="17" fill="#c82f24"/>
    <circle cx="160" cy="82" r="15" fill="#c82f24"/>
    <circle cx="182" cy="154" r="16" fill="#c82f24"/>
    <circle cx="108" cy="176" r="15" fill="#c82f24"/>
    <path d="M135 31v208M31 135h208M62 62l146 146M208 62 62 208" stroke="#f2c36b" stroke-width="6" opacity=".65"/>
  </g>
  <g fill="#121814" stroke="#26392f">
    <rect x="94" y="410" width="210" height="86" rx="14"/>
    <rect x="324" y="410" width="210" height="86" rx="14"/>
    <rect x="554" y="410" width="210" height="86" rx="14"/>
  </g>
  <text x="118" y="446" fill="#00ff88" font-family="Arial, sans-serif" font-size="21" font-weight="800">Combo familia</text>
  <text x="348" y="446" fill="#00ff88" font-family="Arial, sans-serif" font-size="21" font-weight="800">Entrega rapida</text>
  <text x="578" y="446" fill="#00ff88" font-family="Arial, sans-serif" font-size="21" font-weight="800">Oferta do dia</text>
</svg>
