<svg xmlns="http://www.w3.org/2000/svg" viewBox="0 0 960 620" role="img" aria-label="Exemplo de site para servico local">
  <defs>
    <linearGradient id="bg" x1="0" x2="1" y1="0" y2="1"><stop stop-color="#050908"/><stop offset="1" stop-color="#0b2419"/></linearGradient>
    <linearGradient id="a" x1="0" x2="1"><stop stop-color="#00ff88"/><stop offset="1" stop-color="#6eff00"/></linearGradient>
  </defs>
  <rect width="960" height="620" rx="34" fill="url(#bg)"/>
  <rect x="70" y="66" width="820" height="488" rx="30" fill="#0b0f0d" stroke="#1e4933"/>
  <text x="112" y="148" fill="#f7fff9" font-family="Arial, sans-serif" font-size="32" font-weight="900">Servico local perto do cliente</text>
  <text x="112" y="194" fill="#b9c9bf" font-family="Arial, sans-serif" font-size="22">Pagina simples para gerar confianca e chamada no WhatsApp.</text>
  <rect x="112" y="238" width="238" height="60" rx="16" fill="url(#a)"/>
  <text x="150" y="276" fill="#06110b" font-family="Arial, sans-serif" font-size="20" font-weight="900">Pedir orcamento</text>
  <g transform="translate(112 360)">
    <rect width="190" height="92" rx="16" fill="#121814" stroke="#26392f"/>
    <rect x="216" width="190" height="92" rx="16" fill="#121814" stroke="#26392f"/>
    <rect x="432" width="190" height="92" rx="16" fill="#121814" stroke="#26392f"/>
    <text x="24" y="39" fill="#00ff88" font-family="Arial, sans-serif" font-size="18" font-weight="900">Google local</text>
    <text x="240" y="39" fill="#00ff88" font-family="Arial, sans-serif" font-size="18" font-weight="900">Prova social</text>
    <text x="456" y="39" fill="#00ff88" font-family="Arial, sans-serif" font-size="18" font-weight="900">WhatsApp</text>
  </g>
  <g transform="translate(608 158)">
    <rect width="188" height="268" rx="24" fill="#101612" stroke="#2b5b40"/>
    <circle cx="94" cy="80" r="46" fill="#163c2a"/>
    <path d="M94 35c36 46 54 78 54 111 0 32-24 55-54 55s-54-23-54-55c0-33 18-65 54-111Z" fill="url(#a)" opacity=".9"/>
    <circle cx="94" cy="126" r="22" fill="#06110b"/>
    <text x="42" y="232" fill="#f7fff9" font-family="Arial, sans-serif" font-size="21" font-weight="900">Mapa + rota</text>
  </g>
</svg>
